# Blender 4.1.1
# www.blender.org
mtllib rifle.mtl
o Cube.001
v -0.030000 -0.064680 0.048389
v -0.030000 0.080209 0.009566
v -0.030000 -0.080209 -0.009566
v -0.030000 0.064680 -0.048389
v 0.030000 -0.064680 0.048389
v 0.030000 0.080209 0.009566
v 0.030000 -0.080209 -0.009566
v 0.030000 0.064680 -0.048389
vn -1.0000 -0.0000 -0.0000
vn -0.0000 -0.2588 -0.9659
vn 1.0000 -0.0000 -0.0000
vn -0.0000 0.2588 0.9659
vn -0.0000 -0.9659 0.2588
vn -0.0000 0.9659 -0.2588
vt 0.375000 0.000000
vt 0.625000 0.000000
vt 0.625000 0.250000
vt 0.375000 0.250000
vt 0.625000 0.500000
vt 0.375000 0.500000
vt 0.625000 0.750000
vt 0.375000 0.750000
vt 0.625000 1.000000
vt 0.375000 1.000000
vt 0.125000 0.500000
vt 0.125000 0.750000
vt 0.875000 0.500000
vt 0.875000 0.750000
s 0
f 1/1/1 2/2/1 4/3/1 3/4/1
f 3/4/2 4/3/2 8/5/2 7/6/2
f 7/6/3 8/5/3 6/7/3 5/8/3
f 5/8/4 6/7/4 2/9/4 1/10/4
f 3/11/5 7/6/5 5/8/5 1/12/5
f 8/5/6 4/13/6 2/14/6 6/7/6
o Cube.002
v -0.030000 0.033575 0.023313
v -0.030000 0.168587 0.023313
v -0.030000 0.033575 -0.245469
v -0.030000 0.168587 -0.245469
v 0.030000 0.033575 0.023313
v 0.030000 0.168587 0.023313
v 0.030000 0.033575 -0.245469
v 0.030000 0.168587 -0.245469
v 0.013837 0.033575 -0.245469
v -0.013837 0.033575 -0.245469
v -0.013837 0.168587 -0.245469
v 0.013837 0.168587 -0.245469
v -0.013837 0.033575 0.023313
v 0.013837 0.033575 0.023313
v 0.013837 0.168587 0.023313
v -0.013837 0.168587 0.023313
v -0.013837 0.218415 -0.237354
v 0.013837 0.218415 -0.237354
v 0.013837 0.236270 -0.034309
v -0.013837 0.236270 -0.034309
v 0.013837 0.179033 -0.243768
v -0.013837 0.179033 -0.243768
v -0.013837 0.182777 0.011232
v 0.013837 0.182777 0.011232
v 0.013837 0.203317 -0.239813
v -0.013837 0.203317 -0.239813
v -0.013837 0.215761 -0.016848
v 0.013837 0.215761 -0.016848
v -0.030000 0.033575 -0.229408
v -0.030000 0.168587 -0.229408
v 0.030000 0.033575 -0.229408
v 0.030000 0.168587 -0.229408
v -0.013837 0.168587 -0.229408
v 0.013837 0.168587 -0.229408
v 0.013837 0.219482 -0.225220
v -0.013837 0.219482 -0.225220
v -0.013837 0.033575 -0.229408
v 0.013837 0.033575 -0.229408
v 0.013837 0.179257 -0.228530
v -0.013837 0.179257 -0.228530
v 0.013837 0.204060 -0.226489
v -0.013837 0.204060 -0.226489
v -0.030000 0.033575 -0.034336
v 0.030000 0.168587 -0.034336
v 0.013837 0.168587 -0.034336
v 0.013837 0.232440 -0.077858
v -0.013837 0.232440 -0.077858
v -0.013837 0.033575 -0.034336
v 0.013837 0.033575 -0.034336
v 0.013837 0.181974 -0.043460
v 0.013837 0.213092 -0.064670
v -0.030000 0.168587 -0.034336
v 0.030000 0.033575 -0.034336
v -0.013837 0.168587 -0.034336
v -0.013837 0.181974 -0.043460
v -0.013837 0.213092 -0.064670
vn -1.0000 -0.0000 -0.0000
vn -0.0000 -0.0000 -1.0000
vn 1.0000 -0.0000 -0.0000
vn -0.0000 -0.0000 1.0000
vn -0.0000 -1.0000 -0.0000
vn -0.0000 1.0000 -0.0000
vn -0.0000 0.1608 -0.9870
vn -0.0000 0.6482 0.7614
vn -0.0000 0.9962 -0.0876
vn -0.0000 0.9999 -0.0147
vn -0.0000 -0.0820 0.9966
vn -0.0000 -0.9984 0.0557
vn -0.0000 -0.5632 -0.8263
vt 0.375000 0.235061
vt 0.625000 0.235061
vt 0.625000 0.250000
vt 0.375000 0.250000
vt 0.375000 0.416667
vt 0.625000 0.416667
vt 0.625000 0.500000
vt 0.375000 0.500000
vt 0.375000 0.696380
vt 0.625000 0.696380
vt 0.625000 0.750000
vt 0.375000 0.750000
vt 0.375000 0.916667
vt 0.625000 0.916667
vt 0.625000 1.000000
vt 0.375000 1.000000
vt 0.291667 0.696380
vt 0.291667 0.750000
vt 0.734223 0.477414
vt 0.781707 0.524899
vt 0.791667 0.500000
vt 0.741164 0.449498
vt 0.625000 0.839140
vt 0.625000 0.791553
vt 0.679611 0.496177
vt 0.683082 0.474749
vt 0.708333 0.500000
vt 0.703354 0.519919
vt 0.625000 0.333333
vt 0.625000 0.743967
vt 0.625000 0.833333
vt 0.625000 0.833333
vt 0.708333 0.696380
vt 0.791667 0.696380
vt 0.791667 0.750000
vt 0.708333 0.750000
vt 0.125000 0.696380
vt 0.208333 0.696380
vt 0.208333 0.750000
vt 0.125000 0.750000
vt 0.375000 0.833333
vt 0.375000 0.333333
vt 0.625000 0.916667
vt 0.625000 0.441565
vt 0.642471 0.434138
vt 0.641427 0.457993
vt 0.625000 0.368191
vt 0.657855 0.401046
vt 0.659943 0.368276
vt 0.632495 0.799048
vt 0.628747 0.747714
vt 0.208333 0.500000
vt 0.291667 0.500000
vt 0.291667 0.514939
vt 0.208333 0.514939
vt 0.125000 0.500000
vt 0.125000 0.514939
vt 0.791667 0.514939
vt 0.708333 0.514939
vt 0.625000 0.514939
vt 0.637457 0.756424
vt 0.642873 0.761840
vt 0.625000 0.294818
vt 0.649915 0.816468
vt 0.660747 0.827300
vt 0.375000 0.514939
vt 0.375000 0.053620
vt 0.625000 0.053620
vt 0.375000 0.000000
vt 0.625000 0.000000
s 0
f 37/15/7 38/16/7 12/17/7 11/18/7
f 17/19/8 20/20/8 16/21/8 15/22/8
f 61/23/9 52/24/9 14/25/9 13/26/9
f 21/27/10 24/28/10 10/29/10 9/30/10
f 57/31/11 61/23/11 13/26/11 22/32/11
f 50/33/7 44/34/7 25/35/7 34/36/7
f 60/37/12 10/29/12 24/28/12 62/38/12
f 49/39/9 33/40/9 26/41/9 43/42/9
f 33/20/13 34/43/13 25/43/13 26/20/13
f 53/44/12 23/45/12 14/25/12 52/24/12
f 35/28/14 36/46/14 27/45/14 28/28/14
f 54/47/15 55/48/15 28/49/15 27/50/15
f 51/51/11 56/52/11 21/53/11 9/54/11
f 56/52/11 57/31/11 22/32/11 21/53/11
f 13/26/10 14/25/10 23/45/10 22/55/10
f 22/55/10 23/45/10 24/28/10 21/27/10
f 11/18/8 12/17/8 19/43/8 18/56/8
f 18/56/8 19/43/8 20/20/8 17/19/8
f 24/28/14 23/45/14 32/46/14 31/57/14
f 20/20/13 19/43/13 30/43/13 29/20/13
f 42/58/9 20/20/9 29/59/9 47/60/9
f 41/61/7 48/62/7 30/63/7 19/43/7
f 31/57/14 32/46/14 36/46/14 35/28/14
f 29/20/13 30/43/13 34/43/13 33/20/13
f 47/60/9 29/59/9 33/40/9 49/39/9
f 48/62/7 50/33/7 34/36/7 30/63/7
f 63/64/16 58/65/16 47/60/16 48/62/16
f 50/33/17 48/62/17 47/60/17 49/39/17
f 62/38/7 63/64/7 48/62/7 41/61/7
f 53/44/9 42/58/9 47/60/9 58/65/9
f 18/66/11 17/67/11 46/68/11 45/69/11
f 11/70/11 18/66/11 45/69/11 37/71/11
f 26/41/15 25/35/15 44/72/15 43/73/15
f 20/20/12 42/58/12 40/74/12 16/21/12
f 59/75/9 49/39/9 43/42/9 54/76/9
f 12/17/12 38/77/12 41/61/12 19/43/12
f 64/78/7 55/79/7 44/34/7 50/33/7
f 17/67/11 15/22/11 39/80/11 46/68/11
f 15/22/9 16/21/9 40/74/9 39/80/9
f 51/81/7 60/82/7 38/16/7 37/15/7
f 9/83/7 10/84/7 60/82/7 51/81/7
f 35/28/7 28/28/7 55/79/7 64/78/7
f 36/46/9 59/75/9 54/76/9 27/45/9
f 23/45/9 53/44/9 58/65/9 32/46/9
f 24/28/7 31/57/7 63/64/7 62/38/7
f 32/46/9 58/65/9 59/75/9 36/46/9
f 31/57/7 35/28/7 64/78/7 63/64/7
f 45/69/11 46/68/11 57/31/11 56/52/11
f 37/71/11 45/69/11 56/52/11 51/51/11
f 43/73/15 44/72/15 55/48/15 54/47/15
f 42/58/12 53/44/12 52/24/12 40/74/12
f 38/77/12 60/37/12 62/38/12 41/61/12
f 46/68/11 39/80/11 61/23/11 57/31/11
f 39/80/9 40/74/9 52/24/9 61/23/9
f 64/78/18 50/33/18 49/39/18 59/75/18
f 58/65/19 63/64/19 64/78/19 59/75/19
o Cylinder
v 0.000000 0.149350 -0.974676
v 0.000000 0.149350 -0.230469
v 0.002926 0.149062 -0.974676
v 0.002926 0.149062 -0.230469
v 0.005740 0.148208 -0.974676
v 0.005740 0.148208 -0.230469
v 0.008334 0.146822 -0.974676
v 0.008334 0.146822 -0.230469
v 0.010607 0.144957 -0.974676
v 0.010607 0.144957 -0.230469
v 0.012472 0.142684 -0.974676
v 0.012472 0.142684 -0.230469
v 0.013858 0.140090 -0.974676
v 0.013858 0.140090 -0.230469
v 0.014712 0.137277 -0.974676
v 0.014712 0.137277 -0.230469
v 0.015000 0.134350 -0.974676
v 0.015000 0.134350 -0.230469
v 0.014712 0.131424 -0.974676
v 0.014712 0.131424 -0.230469
v 0.013858 0.128610 -0.974676
v 0.013858 0.128610 -0.230469
v 0.012472 0.126017 -0.974676
v 0.012472 0.126017 -0.230469
v 0.010607 0.123744 -0.974676
v 0.010607 0.123744 -0.230469
v 0.008334 0.121878 -0.974676
v 0.008334 0.121878 -0.230469
v 0.005740 0.120492 -0.974676
v 0.005740 0.120492 -0.230469
v 0.002926 0.119638 -0.974676
v 0.002926 0.119638 -0.230469
v 0.000000 0.119350 -0.974676
v 0.000000 0.119350 -0.230469
v -0.002926 0.119638 -0.974676
v -0.002926 0.119638 -0.230469
v -0.005740 0.120492 -0.974676
v -0.005740 0.120492 -0.230469
v -0.008334 0.121878 -0.974676
v -0.008334 0.121878 -0.230469
v -0.010607 0.123744 -0.974676
v -0.010607 0.123744 -0.230469
v -0.012472 0.126017 -0.974676
v -0.012472 0.126017 -0.230469
v -0.013858 0.128610 -0.974676
v -0.013858 0.128610 -0.230469
v -0.014712 0.131424 -0.974676
v -0.014712 0.131424 -0.230469
v -0.015000 0.134350 -0.974676
v -0.015000 0.134350 -0.230469
v -0.014712 0.137277 -0.974676
v -0.014712 0.137277 -0.230469
v -0.013858 0.140090 -0.974676
v -0.013858 0.140090 -0.230469
v -0.012472 0.142684 -0.974676
v -0.012472 0.142684 -0.230469
v -0.010607 0.144957 -0.974676
v -0.010607 0.144957 -0.230469
v -0.008334 0.146822 -0.974676
v -0.008334 0.146822 -0.230469
v -0.005740 0.148208 -0.974676
v -0.005740 0.148208 -0.230469
v -0.002926 0.149062 -0.974676
v -0.002926 0.149062 -0.230469
vn 0.0980 0.9952 -0.0000
vn 0.2903 0.9569 -0.0000
vn 0.4714 0.8819 -0.0000
vn 0.6344 0.7730 -0.0000
vn 0.7730 0.6344 -0.0000
vn 0.8819 0.4714 -0.0000
vn 0.9569 0.2903 -0.0000
vn 0.9952 0.0980 -0.0000
vn 0.9952 -0.0980 -0.0000
vn 0.9569 -0.2903 -0.0000
vn 0.8819 -0.4714 -0.0000
vn 0.7730 -0.6344 -0.0000
vn 0.6344 -0.7730 -0.0000
vn 0.4714 -0.8819 -0.0000
vn 0.2903 -0.9569 -0.0000
vn 0.0980 -0.9952 -0.0000
vn -0.0980 -0.9952 -0.0000
vn -0.2903 -0.9569 -0.0000
vn -0.4714 -0.8819 -0.0000
vn -0.6344 -0.7730 -0.0000
vn -0.7730 -0.6344 -0.0000
vn -0.8819 -0.4714 -0.0000
vn -0.9569 -0.2903 -0.0000
vn -0.9952 -0.0980 -0.0000
vn -0.9952 0.0980 -0.0000
vn -0.9569 0.2903 -0.0000
vn -0.8819 0.4714 -0.0000
vn -0.7730 0.6344 -0.0000
vn -0.6344 0.7730 -0.0000
vn -0.4714 0.8819 -0.0000
vn -0.0000 -0.0000 1.0000
vn -0.2903 0.9569 -0.0000
vn -0.0980 0.9952 -0.0000
vn -0.0000 -0.0000 -1.0000
vt 1.000000 0.500000
vt 1.000000 1.000000
vt 0.968750 1.000000
vt 0.968750 0.500000
vt 0.937500 1.000000
vt 0.937500 0.500000
vt 0.906250 1.000000
vt 0.906250 0.500000
vt 0.875000 1.000000
vt 0.875000 0.500000
vt 0.843750 1.000000
vt 0.843750 0.500000
vt 0.812500 1.000000
vt 0.812500 0.500000
vt 0.781250 1.000000
vt 0.781250 0.500000
vt 0.750000 1.000000
vt 0.750000 0.500000
vt 0.718750 1.000000
vt 0.718750 0.500000
vt 0.687500 1.000000
vt 0.687500 0.500000
vt 0.656250 1.000000
vt 0.656250 0.500000
vt 0.625000 1.000000
vt 0.625000 0.500000
vt 0.593750 1.000000
vt 0.593750 0.500000
vt 0.562500 1.000000
vt 0.562500 0.500000
vt 0.531250 1.000000
vt 0.531250 0.500000
vt 0.500000 1.000000
vt 0.500000 0.500000
vt 0.468750 1.000000
vt 0.468750 0.500000
vt 0.437500 1.000000
vt 0.437500 0.500000
vt 0.406250 1.000000
vt 0.406250 0.500000
vt 0.375000 1.000000
vt 0.375000 0.500000
vt 0.343750 1.000000
vt 0.343750 0.500000
vt 0.312500 1.000000
vt 0.312500 0.500000
vt 0.281250 1.000000
vt 0.281250 0.500000
vt 0.250000 1.000000
vt 0.250000 0.500000
vt 0.218750 1.000000
vt 0.218750 0.500000
vt 0.187500 1.000000
vt 0.187500 0.500000
vt 0.156250 1.000000
vt 0.156250 0.500000
vt 0.125000 1.000000
vt 0.125000 0.500000
vt 0.093750 1.000000
vt 0.093750 0.500000
vt 0.062500 1.000000
vt 0.062500 0.500000
vt 0.296822 0.485388
vt 0.250000 0.490000
vt 0.203178 0.485388
vt 0.158156 0.471731
vt 0.116663 0.449553
vt 0.080294 0.419706
vt 0.050447 0.383337
vt 0.028269 0.341844
vt 0.014612 0.296822
vt 0.010000 0.250000
vt 0.014612 0.203178
vt 0.028269 0.158156
vt 0.050447 0.116663
vt 0.080294 0.080294
vt 0.116663 0.050447
vt 0.158156 0.028269
vt 0.203178 0.014612
vt 0.250000 0.010000
vt 0.296822 0.014612
vt 0.341844 0.028269
vt 0.383337 0.050447
vt 0.419706 0.080294
vt 0.449553 0.116663
vt 0.471731 0.158156
vt 0.485388 0.203178
vt 0.490000 0.250000
vt 0.485388 0.296822
vt 0.471731 0.341844
vt 0.449553 0.383337
vt 0.419706 0.419706
vt 0.383337 0.449553
vt 0.341844 0.471731
vt 0.031250 1.000000
vt 0.031250 0.500000
vt 0.000000 1.000000
vt 0.000000 0.500000
vt 0.750000 0.490000
vt 0.796822 0.485388
vt 0.841844 0.471731
vt 0.883337 0.449553
vt 0.919706 0.419706
vt 0.949553 0.383337
vt 0.971731 0.341844
vt 0.985388 0.296822
vt 0.990000 0.250000
vt 0.985388 0.203178
vt 0.971731 0.158156
vt 0.949553 0.116663
vt 0.919706 0.080294
vt 0.883337 0.050447
vt 0.841844 0.028269
vt 0.796822 0.014612
vt 0.750000 0.010000
vt 0.703178 0.014612
vt 0.658156 0.028269
vt 0.616663 0.050447
vt 0.580294 0.080294
vt 0.550447 0.116663
vt 0.528269 0.158156
vt 0.514612 0.203178
vt 0.510000 0.250000
vt 0.514612 0.296822
vt 0.528269 0.341844
vt 0.550447 0.383337
vt 0.580294 0.419706
vt 0.616663 0.449553
vt 0.658156 0.471731
vt 0.703178 0.485388
s 0
f 65/85/20 66/86/20 68/87/20 67/88/20
f 67/88/21 68/87/21 70/89/21 69/90/21
f 69/90/22 70/89/22 72/91/22 71/92/22
f 71/92/23 72/91/23 74/93/23 73/94/23
f 73/94/24 74/93/24 76/95/24 75/96/24
f 75/96/25 76/95/25 78/97/25 77/98/25
f 77/98/26 78/97/26 80/99/26 79/100/26
f 79/100/27 80/99/27 82/101/27 81/102/27
f 81/102/28 82/101/28 84/103/28 83/104/28
f 83/104/29 84/103/29 86/105/29 85/106/29
f 85/106/30 86/105/30 88/107/30 87/108/30
f 87/108/31 88/107/31 90/109/31 89/110/31
f 89/110/32 90/109/32 92/111/32 91/112/32
f 91/112/33 92/111/33 94/113/33 93/114/33
f 93/114/34 94/113/34 96/115/34 95/116/34
f 95/116/35 96/115/35 98/117/35 97/118/35
f 97/118/36 98/117/36 100/119/36 99/120/36
f 99/120/37 100/119/37 102/121/37 101/122/37
f 101/122/38 102/121/38 104/123/38 103/124/38
f 103/124/39 104/123/39 106/125/39 105/126/39
f 105/126/40 106/125/40 108/127/40 107/128/40
f 107/128/41 108/127/41 110/129/41 109/130/41
f 109/130/42 110/129/42 112/131/42 111/132/42
f 111/132/43 112/131/43 114/133/43 113/134/43
f 113/134/44 114/133/44 116/135/44 115/136/44
f 115/136/45 116/135/45 118/137/45 117/138/45
f 117/138/46 118/137/46 120/139/46 119/140/46
f 119/140/47 120/139/47 122/141/47 121/142/47
f 121/142/48 122/141/48 124/143/48 123/144/48
f 123/144/49 124/143/49 126/145/49 125/146/49
f 68/147/50 66/148/50 128/149/50 126/150/50 124/151/50 122/152/50 120/153/50 118/154/50 116/155/50 114/156/50 112/157/50 110/158/50 108/159/50 106/160/50 104/161/50 102/162/50 100/163/50 98/164/50 96/165/50 94/166/50 92/167/50 90/168/50 88/169/50 86/170/50 84/171/50 82/172/50 80/173/50 78/174/50 76/175/50 74/176/50 72/177/50 70/178/50
f 125/146/51 126/145/51 128/179/51 127/180/51
f 127/180/52 128/179/52 66/181/52 65/182/52
f 65/183/53 67/184/53 69/185/53 71/186/53 73/187/53 75/188/53 77/189/53 79/190/53 81/191/53 83/192/53 85/193/53 87/194/53 89/195/53 91/196/53 93/197/53 95/198/53 97/199/53 99/200/53 101/201/53 103/202/53 105/203/53 107/204/53 109/205/53 111/206/53 113/207/53 115/208/53 117/209/53 119/210/53 121/211/53 123/212/53 125/213/53 127/214/53
o Cube
v -0.030000 0.104350 -0.215469
v -0.030000 0.164350 -0.215469
v -0.030000 0.104350 -0.753106
v -0.030000 0.164350 -0.753106
v 0.030000 0.104350 -0.215469
v 0.030000 0.164350 -0.215469
v 0.030000 0.104350 -0.753106
v 0.030000 0.164350 -0.753106
v -0.030000 0.104350 -0.686550
v -0.030000 0.164350 -0.686550
v 0.030000 0.104350 -0.686550
v 0.030000 0.164350 -0.686550
v 0.010000 0.164350 -0.753106
v -0.010000 0.164350 -0.753106
v -0.010000 0.104350 -0.753106
v 0.010000 0.104350 -0.753106
v -0.010000 0.104350 -0.215469
v 0.010000 0.104350 -0.215469
v 0.010000 0.164350 -0.215469
v -0.010000 0.164350 -0.215469
v -0.010000 0.164350 -0.686550
v 0.010000 0.164350 -0.686550
v 0.010000 0.104350 -0.686550
v -0.010000 0.104350 -0.686550
v -0.010000 0.226570 -0.753106
v 0.010000 0.226570 -0.753106
v -0.010000 0.227247 -0.729833
v 0.010000 0.227247 -0.729833
vn -1.0000 -0.0000 -0.0000
vn -0.0000 -0.0000 -1.0000
vn 1.0000 -0.0000 -0.0000
vn -0.0000 -0.0000 1.0000
vn -0.0000 -1.0000 -0.0000
vn -0.0000 1.0000 -0.0000
vn -0.0000 0.9996 -0.0290
vn -0.0000 0.5669 0.8238
vt 0.375000 0.219052
vt 0.625000 0.219052
vt 0.625000 0.250000
vt 0.375000 0.250000
vt 0.375000 0.416667
vt 0.625000 0.416667
vt 0.625000 0.500000
vt 0.375000 0.500000
vt 0.375000 0.530948
vt 0.625000 0.530948
vt 0.625000 0.750000
vt 0.375000 0.750000
vt 0.375000 0.916667
vt 0.625000 0.916667
vt 0.625000 1.000000
vt 0.375000 1.000000
vt 0.291667 0.530948
vt 0.291667 0.750000
vt 0.791667 0.530948
vt 0.875000 0.530948
vt 0.875000 0.750000
vt 0.791667 0.750000
vt 0.625000 0.333333
vt 0.291667 0.500000
vt 0.375000 0.000000
vt 0.625000 0.000000
vt 0.125000 0.500000
vt 0.208333 0.500000
vt 0.208333 0.530948
vt 0.125000 0.530948
vt 0.708333 0.530948
vt 0.708333 0.750000
vt 0.208333 0.750000
vt 0.125000 0.750000
vt 0.625000 0.833333
vt 0.375000 0.833333
vt 0.375000 0.333333
s 0
f 137/215/54 138/216/54 132/217/54 131/218/54
f 144/219/55 141/220/55 136/221/55 135/222/55
f 139/223/56 140/224/56 134/225/56 133/226/56
f 145/227/57 148/228/57 130/229/57 129/230/57
f 151/231/58 139/223/58 133/226/58 146/232/58
f 149/233/59 138/234/59 130/235/59 148/236/59
f 138/234/59 149/233/59 142/237/59 132/217/59
f 144/238/58 135/222/58 139/223/58 151/231/58
f 135/222/56 136/221/56 140/224/56 139/223/56
f 129/239/54 130/240/54 138/216/54 137/215/54
f 131/241/58 143/242/58 152/243/58 137/244/58
f 142/237/54 149/233/54 155/233/54 153/237/54
f 150/245/59 140/224/59 136/221/59 141/220/59
f 143/242/58 144/238/58 151/231/58 152/243/58
f 140/224/59 150/245/59 147/246/59 134/225/59
f 150/245/59 149/233/59 148/236/59 147/246/59
f 137/244/58 152/243/58 145/247/58 129/248/58
f 152/243/58 151/231/58 146/232/58 145/247/58
f 133/226/57 134/225/57 147/249/57 146/250/57
f 146/250/57 147/249/57 148/228/57 145/227/57
f 131/218/55 132/217/55 142/237/55 143/251/55
f 143/251/55 142/237/55 141/220/55 144/219/55
f 155/233/60 156/245/60 154/220/60 153/237/60
f 141/220/55 142/237/55 153/237/55 154/220/55
f 150/245/56 141/220/56 154/220/56 156/245/56
f 149/233/61 150/245/61 156/245/61 155/233/61
o Cube.003
v -0.025000 0.088756 0.042403
v -0.025000 0.157455 0.042403
v -0.025000 0.088756 -0.026687
v -0.025000 0.157455 -0.026687
v 0.025000 0.088756 0.042403
v 0.025000 0.157455 0.042403
v 0.025000 0.088756 -0.026687
v 0.025000 0.157455 -0.026687
v -0.025000 -0.021815 0.376669
v -0.025000 0.157455 0.376669
v 0.025000 0.157455 0.376669
v 0.025000 -0.021815 0.376669
vn -1.0000 -0.0000 -0.0000
vn -0.0000 -0.0000 -1.0000
vn 1.0000 -0.0000 -0.0000
vn -0.0000 1.0000 -0.0000
vn -0.0000 -1.0000 -0.0000
vn -0.0000 -0.0000 1.0000
vn -0.0000 -0.9494 -0.3141
vt 0.375000 0.000000
vt 0.625000 0.000000
vt 0.625000 0.250000
vt 0.375000 0.250000
vt 0.625000 0.500000
vt 0.375000 0.500000
vt 0.625000 0.750000
vt 0.375000 0.750000
vt 0.875000 0.750000
vt 0.125000 0.500000
vt 0.125000 0.750000
vt 0.875000 0.500000
vt 0.625000 1.000000
vt 0.375000 1.000000
s 0
f 157/252/62 158/253/62 160/254/62 159/255/62
f 159/255/63 160/254/63 164/256/63 163/257/63
f 163/257/64 164/256/64 162/258/64 161/259/64
f 162/258/65 158/260/65 166/260/65 167/258/65
f 159/261/66 163/257/66 161/259/66 157/262/66
f 164/256/65 160/263/65 158/260/65 162/258/65
f 168/259/67 167/258/67 166/264/67 165/265/67
f 161/259/64 162/258/64 167/258/64 168/259/64
f 158/253/62 157/252/62 165/252/62 166/253/62
f 157/262/68 161/259/68 168/259/68 165/262/68
o Cube.004
v -0.022999 -0.002882 -0.134010
v -0.022999 0.081981 -0.134010
v -0.022999 -0.002882 -0.220390
v -0.022999 0.081981 -0.220390
v 0.027001 -0.002882 -0.134010
v 0.027001 0.081981 -0.134010
v 0.027001 -0.002882 -0.220390
v 0.027001 0.081981 -0.220390
v -0.022999 -0.101170 -0.245186
v -0.022999 -0.126990 -0.162755
v 0.027001 -0.101170 -0.245186
v 0.027001 -0.126990 -0.162755
vn -1.0000 -0.0000 -0.0000
vn -0.0000 -0.0000 -1.0000
vn 1.0000 -0.0000 -0.0000
vn -0.0000 -0.0000 1.0000
vn -0.0000 0.2446 -0.9696
vn -0.0000 1.0000 -0.0000
vn -0.0000 -0.9543 -0.2989
vn -0.0000 -0.2256 0.9742
vt 0.375000 0.000000
vt 0.625000 0.000000
vt 0.625000 0.250000
vt 0.375000 0.250000
vt 0.625000 0.500000
vt 0.375000 0.500000
vt 0.625000 0.750000
vt 0.375000 0.750000
vt 0.625000 1.000000
vt 0.375000 1.000000
vt 0.875000 0.500000
vt 0.875000 0.750000
vt 0.125000 0.500000
vt 0.125000 0.750000
s 0
f 169/266/69 170/267/69 172/268/69 171/269/69
f 171/269/70 172/268/70 176/270/70 175/271/70
f 175/271/71 176/270/71 174/272/71 173/273/71
f 173/273/72 174/272/72 170/274/72 169/275/72
f 171/269/73 175/271/73 179/271/73 177/269/73
f 176/270/74 172/276/74 170/277/74 174/272/74
f 177/278/75 179/271/75 180/273/75 178/279/75
f 169/266/69 171/269/69 177/269/69 178/266/69
f 175/271/71 173/273/71 180/273/71 179/271/71
f 173/273/76 169/275/76 178/275/76 180/273/76
